<?xml version="1.0" encoding="UTF-8"?>
<svg width="24px" height="24px" viewBox="0 0 24 24" version="1.1" xmlns="http://www.w3.org/2000/svg" xmlns:xlink="http://www.w3.org/1999/xlink">
    <!-- Generator: Sketch 52.6 (67491) - http://www.bohemiancoding.com/sketch -->
    <title>icon/password/hide</title>
    <desc>Created with Sketch.</desc>
    <defs>
        <path d="M11,4 C14.79,4 18.17,6.13 19.82,9.5 C19.23,10.72 18.4,11.77 17.41,12.62 L18.82,14.03 C20.21,12.8 21.31,11.26 22,9.5 C20.27,5.11 16,2 11,2 C9.73,2 8.51,2.2 7.36,2.57 L9.01,4.22 C9.66,4.09 10.32,4 11,4 Z M13.28,8.49 L15.35,10.56 C15.43,10.22 15.49,9.86 15.49,9.49 C15.5,7.01 13.48,5 11,5 C10.63,5 10.28,5.06 9.93,5.14 L12,7.21 C12.58,7.46 13.03,7.92 13.28,8.49 Z M1.01,1.87 L3.69,4.55 C2.06,5.83 0.77,7.53 0,9.5 C1.73,13.89 6,17 11,17 C12.52,17 13.98,16.71 15.32,16.18 L18.74,19.6 L20.15,18.19 L2.42,0.45 L1.01,1.87 Z M8.51,9.37 L11.12,11.98 C11.08,11.99 11.04,12 11,12 C9.62,12 8.5,10.88 8.5,9.5 C8.5,9.45 8.51,9.42 8.51,9.37 Z M5.11,5.97 L6.86,7.72 C6.63,8.27 6.5,8.87 6.5,9.5 C6.5,11.98 8.52,14 11,14 C11.63,14 12.23,13.87 12.77,13.64 L13.75,14.62 C12.87,14.86 11.95,15 11,15 C7.21,15 3.83,12.87 2.18,9.5 C2.88,8.07 3.9,6.89 5.11,5.97 Z" id="path-1"></path>
    </defs>
    <g id="icon/password/hide" stroke="none" stroke-width="1" fill="none" fill-rule="evenodd">
        <g id="twotone-visibility_off-24px">
            <g id="colour/p/white"></g>
            <g id="colour/d/dark-blue" transform="translate(1.000000, 3.000000)">
                <mask id="mask-2" fill="white">
                    <use xlink:href="#path-1"></use>
                </mask>
                <use id="Mask" fill="#000000" fill-rule="nonzero" xlink:href="#path-1"></use>
                <g id="colour/neutral/light-grey" mask="url(#mask-2)" fill="#9B9B9B">
                    <g transform="translate(-1.000000, -2.000000)" id="Rectangle">
                        <rect transform="translate(12.000000, 12.000000) rotate(-360.000000) translate(-12.000000, -12.000000) " x="-7.10542736e-15" y="7.10542736e-15" width="24" height="24"></rect>
                    </g>
                </g>
            </g>
        </g>
    </g>
</svg>