<?xml version="1.0" encoding="UTF-8"?>
<svg width="24px" height="24px" viewBox="0 0 24 24" version="1.1" xmlns="http://www.w3.org/2000/svg" xmlns:xlink="http://www.w3.org/1999/xlink">
    <!-- Generator: Sketch 52.6 (67491) - http://www.bohemiancoding.com/sketch -->
    <title>icon/password/show</title>
    <desc>Created with Sketch.</desc>
    <defs>
        <path d="M12,7 C8.21,7 4.83,9.13 3.18,12.5 C4.83,15.87 8.21,18 12,18 C15.79,18 19.17,15.87 20.82,12.5 C19.17,9.13 15.79,7 12,7 Z M12,17 C9.52,17 7.5,14.98 7.5,12.5 C7.5,10.02 9.52,8 12,8 C14.48,8 16.5,10.02 16.5,12.5 C16.5,14.98 14.48,17 12,17 Z" id="path-1"></path>
        <path d="M12,5 C7,5 2.73,8.11 1,12.5 C2.73,16.89 7,20 12,20 C17,20 21.27,16.89 23,12.5 C21.27,8.11 17,5 12,5 Z M12,18 C8.21,18 4.83,15.87 3.18,12.5 C4.83,9.13 8.21,7 12,7 C15.79,7 19.17,9.13 20.82,12.5 C19.17,15.87 15.79,18 12,18 Z" id="path-3"></path>
        <path d="M12,8 C9.52,8 7.5,10.02 7.5,12.5 C7.5,14.98 9.52,17 12,17 C14.48,17 16.5,14.98 16.5,12.5 C16.5,10.02 14.48,8 12,8 Z M12,15 C10.62,15 9.5,13.88 9.5,12.5 C9.5,11.12 10.62,10 12,10 C13.38,10 14.5,11.12 14.5,12.5 C14.5,13.88 13.38,15 12,15 Z" id="path-5"></path>
    </defs>
    <g id="icon/password/show" stroke="none" stroke-width="1" fill="none" fill-rule="evenodd">
        <mask id="mask-2" fill="white">
            <use xlink:href="#path-1"></use>
        </mask>
        <use id="Mask" fill="#F7F7EF" fill-rule="nonzero" xlink:href="#path-1"></use>
        <g id="colour/neutral/white" mask="url(#mask-2)" fill="#FFFFFF">
            <rect id="Rectangle" transform="translate(12.000000, 12.000000) rotate(-360.000000) translate(-12.000000, -12.000000) " x="-7.10542736e-15" y="7.10542736e-15" width="24" height="24"></rect>
        </g>
        <mask id="mask-4" fill="white">
            <use xlink:href="#path-3"></use>
        </mask>
        <use id="Mask" fill="#000000" fill-rule="nonzero" xlink:href="#path-3"></use>
        <g id="colour/neutral/light-grey" mask="url(#mask-4)" fill="#9B9B9B">
            <rect id="Rectangle" transform="translate(12.000000, 12.000000) rotate(-360.000000) translate(-12.000000, -12.000000) " x="-7.10542736e-15" y="7.10542736e-15" width="24" height="24"></rect>
        </g>
        <mask id="mask-6" fill="white">
            <use xlink:href="#path-5"></use>
        </mask>
        <use id="Mask" fill="#000000" fill-rule="nonzero" xlink:href="#path-5"></use>
        <g id="colour/neutral/light-grey" mask="url(#mask-6)" fill="#9B9B9B">
            <rect id="Rectangle" transform="translate(12.000000, 12.000000) rotate(-360.000000) translate(-12.000000, -12.000000) " x="-7.10542736e-15" y="7.10542736e-15" width="24" height="24"></rect>
        </g>
    </g>
</svg>